<svg width="66" height="68" viewBox="0 0 66 68" fill="none" xmlns="http://www.w3.org/2000/svg" xmlns:xlink="http://www.w3.org/1999/xlink">
<path d="M61.421,34.332C61.421,52.29 47.869,66.849 31.152,66.849C14.435,66.849 0.883,52.29 0.883,34.332C0.883,16.373 14.435,1.814 31.152,1.814C47.869,1.814 61.421,16.373 61.421,34.332Z" fill="#FFFFFF"/>
<path d="M33.152,0.867C15.975,0.867 2,15.88 2,34.333C2,52.786 15.975,67.798 33.152,67.798C50.329,67.798 64.304,52.786 64.304,34.333C64.304,15.88 50.329,0.867 33.152,0.867ZM33.152,54.927C30.022,54.927 27.533,53.502 27.199,50.49C27.19,50.4 27.199,50.309 27.225,50.223C27.251,50.136 27.294,50.057 27.35,49.99C27.407,49.923 27.476,49.87 27.553,49.833C27.63,49.797 27.714,49.778 27.798,49.778L38.499,49.778C38.584,49.778 38.668,49.797 38.746,49.834C38.824,49.871 38.893,49.925 38.95,49.993C39.007,50.062 39.049,50.142 39.075,50.229C39.1,50.316 39.108,50.408 39.098,50.499C38.716,53.455 36.249,54.927 33.152,54.927ZM47.83,47.204L18.475,47.204C16.701,47.204 15.779,44.791 16.799,43.504C19.244,40.392 20.973,39.084 20.973,30.504C20.973,22.641 24.828,19.851 28.012,18.49C28.231,18.392 28.429,18.245 28.592,18.06C28.755,17.875 28.881,17.655 28.96,17.415C29.513,15.444 31.076,13.739 33.152,13.739C35.228,13.739 36.789,15.444 37.346,17.417C37.426,17.657 37.551,17.877 37.715,18.062C37.878,18.247 38.076,18.393 38.295,18.491C41.472,19.849 45.334,22.644 45.334,30.505C45.334,39.086 47.061,40.394 49.507,43.505C50.516,44.791 49.592,47.204 47.83,47.204Z" fill="#3683F0"/>
<path d="M53.333,22.41C53.333,26.6 50.171,29.997 46.27,29.997C42.369,29.997 39.207,26.6 39.207,22.41C39.207,18.219 42.369,14.822 46.27,14.822C50.171,14.822 53.333,18.219 53.333,22.41Z" fill="#FF2C55"/>
</svg>
