<svg width="32" height="30" viewBox="0 0 32 30" fill="none" xmlns="http://www.w3.org/2000/svg" xmlns:xlink="http://www.w3.org/1999/xlink">
<path d="M8.7,28.764C9.481,29.545 10.747,29.545 11.528,28.764C12.309,27.983 12.309,26.717 11.528,25.936L8.7,28.764ZM1.7,18.936L0.286,17.522C-0.495,18.303 -0.495,19.569 0.286,20.35L1.7,18.936ZM11.528,11.937C12.309,11.156 12.309,9.889 11.528,9.108C10.747,8.327 9.481,8.327 8.7,9.108L11.528,11.937ZM30.3,2.65C30.3,1.546 29.405,0.65 28.3,0.65C27.195,0.65 26.3,1.546 26.3,2.65L30.3,2.65ZM11.528,25.936L3.114,17.522L0.286,20.35L8.7,28.764L11.528,25.936ZM3.114,20.35L11.528,11.937L8.7,9.108L0.286,17.522L3.114,20.35ZM1.7,20.936L20.3,20.936L20.3,16.936L1.7,16.936L1.7,20.936ZM30.3,10.936L30.3,2.65L26.3,2.65L26.3,10.936L30.3,10.936ZM20.3,20.936C25.823,20.936 30.3,16.459 30.3,10.936L26.3,10.936C26.3,14.25 23.614,16.936 20.3,16.936L20.3,20.936Z" transform="rotate(360 15 15)" fill="#616161"/>
</svg>
