<svg width="34" height="28" viewBox="0 0 34 28" fill="none" xmlns="http://www.w3.org/2000/svg" xmlns:xlink="http://www.w3.org/1999/xlink">
<path d="M10.298,27.219C11.137,27.938 12.399,27.84 13.118,27.002C13.837,26.163 13.74,24.901 12.901,24.182L10.298,27.219ZM2.3,17.729L0.998,16.211C0.555,16.591 0.3,17.145 0.3,17.729C0.3,18.313 0.555,18.868 0.998,19.248L2.3,17.729ZM12.901,11.277C13.74,10.558 13.837,9.295 13.118,8.457C12.399,7.618 11.137,7.521 10.298,8.24L12.901,11.277ZM33.7,2.3C33.7,1.196 32.805,0.3 31.7,0.3C30.595,0.3 29.7,1.196 29.7,2.3L33.7,2.3ZM12.901,24.182L3.602,16.211L0.998,19.248L10.298,27.219L12.901,24.182ZM3.602,19.248L12.901,11.277L10.298,8.24L0.998,16.211L3.602,19.248ZM2.3,19.729L23.7,19.729L23.7,15.729L2.3,15.729L2.3,19.729ZM33.7,9.729L33.7,2.3L29.7,2.3L29.7,9.729L33.7,9.729ZM23.7,19.729C29.223,19.729 33.7,15.252 33.7,9.729L29.7,9.729C29.7,13.043 27.014,15.729 23.7,15.729L23.7,19.729Z" transform="rotate(0 17 14)" fill="#616161"/>
</svg>
