<svg width="36" height="36" viewBox="0 0 36 36" fill="none" xmlns="http://www.w3.org/2000/svg" xmlns:xlink="http://www.w3.org/1999/xlink">
<path d="M21.192,-0.2C20.088,-0.2 19.192,0.695 19.192,1.8C19.192,2.904 20.088,3.8 21.192,3.8L21.192,-0.2ZM32.199,1.8L34.199,1.8C34.199,0.695 33.304,-0.2 32.199,-0.2L32.199,1.8ZM30.199,12.807C30.199,13.911 31.094,14.807 32.199,14.807C33.304,14.807 34.199,13.911 34.199,12.807L30.199,12.807ZM19.778,11.392C18.997,12.174 18.997,13.44 19.778,14.221C20.559,15.002 21.825,15.002 22.606,14.221L19.778,11.392ZM12.808,34.2C13.913,34.2 14.808,33.304 14.808,32.2C14.808,31.095 13.913,30.2 12.808,30.2L12.808,34.2ZM1.801,32.2L-0.199,32.2C-0.199,33.304 0.696,34.2 1.801,34.2L1.801,32.2ZM3.801,21.193C3.801,20.088 2.906,19.193 1.801,19.193C0.696,19.193 -0.199,20.088 -0.199,21.193L3.801,21.193ZM14.615,22.214C15.396,21.433 15.396,20.167 14.615,19.386C13.834,18.605 12.568,18.605 11.787,19.386L14.615,22.214ZM34.2,21.192C34.2,20.087 33.305,19.192 32.2,19.192C31.095,19.192 30.2,20.087 30.2,21.192L34.2,21.192ZM32.2,32.199L32.2,34.199C33.305,34.199 34.2,33.303 34.2,32.199L32.2,32.199ZM21.193,30.199C20.089,30.199 19.193,31.094 19.193,32.199C19.193,33.303 20.089,34.199 21.193,34.199L21.193,30.199ZM22.607,19.778C21.826,18.997 20.56,18.997 19.779,19.778C18.998,20.559 18.998,21.825 19.779,22.606L22.607,19.778ZM-0.2,12.808C-0.2,13.912 0.695,14.808 1.8,14.808C2.905,14.808 3.8,13.912 3.8,12.808L-0.2,12.808ZM1.8,1.801L1.8,-0.199C0.695,-0.199 -0.2,0.696 -0.2,1.801L1.8,1.801ZM12.807,3.801C13.912,3.801 14.807,2.905 14.807,1.801C14.807,0.696 13.912,-0.199 12.807,-0.199L12.807,3.801ZM11.786,14.615C12.567,15.396 13.833,15.396 14.614,14.615C15.395,13.834 15.395,12.568 14.614,11.787L11.786,14.615ZM21.192,3.8L32.199,3.8L32.199,-0.2L21.192,-0.2L21.192,3.8ZM30.199,1.8L30.199,12.807L34.199,12.807L34.199,1.8L30.199,1.8ZM30.785,0.386L19.778,11.392L22.606,14.221L33.613,3.214L30.785,0.386ZM12.808,30.2L1.801,30.2L1.801,34.2L12.808,34.2L12.808,30.2ZM3.801,32.2L3.801,21.193L-0.199,21.193L-0.199,32.2L3.801,32.2ZM3.215,33.614L14.615,22.214L11.787,19.386L0.387,30.786L3.215,33.614ZM30.2,21.192L30.2,32.199L34.2,32.199L34.2,21.192L30.2,21.192ZM32.2,30.199L21.193,30.199L21.193,34.199L32.2,34.199L32.2,30.199ZM33.614,30.785L22.607,19.778L19.779,22.606L30.786,33.613L33.614,30.785ZM3.8,12.808L3.8,1.801L-0.2,1.801L-0.2,12.808L3.8,12.808ZM1.8,3.801L12.807,3.801L12.807,-0.199L1.8,-0.199L1.8,3.801ZM0.386,3.215L11.786,14.615L14.614,11.787L3.214,0.387L0.386,3.215Z" fill="#616161"/>
</svg>
