<svg width="44" height="44" viewBox="0 0 44 44" fill="none" xmlns="http://www.w3.org/2000/svg" xmlns:xlink="http://www.w3.org/1999/xlink">
<path d="M43.081,3.414C43.862,2.633 43.862,1.367 43.081,0.586C42.3,-0.195 41.034,-0.195 40.252,0.586L43.081,3.414ZM0.586,40.252C-0.195,41.034 -0.195,42.3 0.586,43.081C1.367,43.862 2.633,43.862 3.414,43.081L0.586,40.252ZM40.252,43.081C41.034,43.862 42.3,43.862 43.081,43.081C43.862,42.3 43.862,41.033 43.081,40.252L40.252,43.081ZM3.414,0.586C2.633,-0.195 1.367,-0.195 0.586,0.586C-0.195,1.367 -0.195,2.633 0.586,3.414L3.414,0.586ZM40.252,0.586L20.419,20.419L23.248,23.248L43.081,3.414L40.252,0.586ZM20.419,20.419L0.586,40.252L3.414,43.081L23.248,23.248L20.419,20.419ZM43.081,40.252L23.248,20.419L20.419,23.248L40.252,43.081L43.081,40.252ZM23.248,20.419L3.414,0.586L0.586,3.414L20.419,23.248L23.248,20.419Z" fill="#FFFFFF"/>
</svg>
