<svg width="622" height="98" viewBox="0 0 622 98" fill="none" xmlns="http://www.w3.org/2000/svg" xmlns:xlink="http://www.w3.org/1999/xlink">
<path d="M49.105,98C76.225,98 98.211,76.062 98.211,49C98.211,21.938 76.225,0 49.105,0C21.985,0 0,21.938 0,49C0,76.062 21.985,98 49.105,98Z" fill="#0029FF"/>
<path d="M27.826,52.267C30.538,52.267 32.737,50.073 32.737,47.367C32.737,44.661 30.538,42.467 27.826,42.467C25.114,42.467 22.916,44.661 22.916,47.367C22.916,50.073 25.114,52.267 27.826,52.267Z" fill="#FFFFFF"/>
<g opacity="0.1">
<path d="M31.1,39.2C33.812,39.2 36.011,37.007 36.011,34.3C36.011,31.594 33.812,29.4 31.1,29.4C28.388,29.4 26.19,31.594 26.19,34.3C26.19,37.007 28.388,39.2 31.1,39.2Z" fill="#FFFFFF"/>
</g>
<g opacity="0.1">
<path d="M31.1,65.333C33.812,65.333 36.011,63.139 36.011,60.433C36.011,57.727 33.812,55.533 31.1,55.533C28.388,55.533 26.19,57.727 26.19,60.433C26.19,63.139 28.388,65.333 31.1,65.333Z" fill="#FFFFFF"/>
</g>
<g opacity="0.1">
<path d="M70.385,65.333C73.097,65.333 75.296,63.139 75.296,60.433C75.296,57.727 73.097,55.533 70.385,55.533C67.673,55.533 65.475,57.727 65.475,60.433C65.475,63.139 67.673,65.333 70.385,65.333Z" fill="#FFFFFF"/>
</g>
<g opacity="0.1">
<path d="M70.385,39.2C73.097,39.2 75.296,37.007 75.296,34.3C75.296,31.594 73.097,29.4 70.385,29.4C67.673,29.4 65.475,31.594 65.475,34.3C65.475,37.007 67.673,39.2 70.385,39.2Z" fill="#FFFFFF"/>
</g>
<path d="M40.92,75.134C43.632,75.134 45.831,72.94 45.831,70.234C45.831,67.528 43.632,65.334 40.92,65.334C38.208,65.334 36.01,67.528 36.01,70.234C36.01,72.94 38.208,75.134 40.92,75.134Z" fill="#FFFFFF"/>
<path d="M60.563,75.134C63.275,75.134 65.473,72.94 65.473,70.234C65.473,67.528 63.275,65.334 60.563,65.334C57.851,65.334 55.652,67.528 55.652,70.234C55.652,72.94 57.851,75.134 60.563,75.134Z" fill="#FFFFFF"/>
<path d="M73.659,52.267C76.371,52.267 78.569,50.073 78.569,47.367C78.569,44.661 76.371,42.467 73.659,42.467C70.947,42.467 68.748,44.661 68.748,47.367C68.748,50.073 70.947,52.267 73.659,52.267Z" fill="#FFFFFF"/>
<path d="M50.742,52.267C53.454,52.267 55.653,50.073 55.653,47.367C55.653,44.661 53.454,42.467 50.742,42.467C48.03,42.467 45.832,44.661 45.832,47.367C45.832,50.073 48.03,52.267 50.742,52.267Z" fill="#FFFFFF"/>
<path d="M60.563,29.4C63.275,29.4 65.474,27.206 65.474,24.5C65.474,21.793 63.275,19.6 60.563,19.6C57.851,19.6 55.653,21.793 55.653,24.5C55.653,27.206 57.851,29.4 60.563,29.4Z" fill="#FFFFFF"/>
<path d="M40.92,29.4C43.632,29.4 45.831,27.206 45.831,24.5C45.831,21.793 43.632,19.6 40.92,19.6C38.208,19.6 36.01,21.793 36.01,24.5C36.01,27.206 38.208,29.4 40.92,29.4Z" fill="#FFFFFF"/>
<path d="M50.742,47.367L51.661,46.973L51.401,46.367L50.742,46.367L50.742,47.367ZM60.563,70.234L60.563,71.234L62.081,71.234L61.482,69.839L60.563,70.234ZM27.826,48.367L50.742,48.367L50.742,46.367L27.826,46.367L27.826,48.367ZM49.823,47.762L59.644,70.628L61.482,69.839L51.661,46.973L49.823,47.762ZM60.563,69.234L40.921,69.234L40.921,71.234L60.563,71.234L60.563,69.234Z" fill="#FFFFFF"/>
<line x1="40.922" y1="23.5" x2="60.564" y2="23.5" stroke="#FFFFFF" stroke-width="1" stroke-miterlimit="3.999327"/>
<path d="M150.196,26.329L135.988,26.329L135.988,71.866L150.196,71.866C165.189,71.866 174.421,63.308 174.421,49.196C174.421,35.084 165.189,26.329 150.196,26.329ZM141.946,66.966L141.946,31.164L150.196,31.164C162.112,31.164 168.332,38.089 168.332,49.196C168.332,60.302 162.112,66.966 150.196,66.966L141.946,66.966ZM206.833,26.264L182.28,26.264L182.28,71.866L206.833,71.866L206.833,66.966L188.238,66.966L188.238,51.286L204.868,51.286L204.868,46.386L188.238,46.386L188.238,31.164L206.833,31.164L206.833,26.264ZM240.401,26.264L215.848,26.264L215.848,71.866L240.401,71.866L240.401,66.966L221.806,66.966L221.806,51.286L238.437,51.286L238.437,46.386L221.806,46.386L221.806,31.164L240.401,31.164L240.401,26.264ZM255.374,47.954L255.374,31.229L264.148,31.229C270.957,31.229 273.838,34.365 273.838,39.657C273.838,44.753 270.957,47.954 264.148,47.954L255.374,47.954ZM279.927,39.657C279.927,32.209 274.885,26.329 264.148,26.329L249.416,26.329L249.416,71.866L255.374,71.866L255.374,52.854L264.148,52.854C275.475,52.854 279.927,46.582 279.927,39.657Z" fill="#000000"/>
<path d="M301.318,34.954L313.496,34.954L313.496,71.867L324.692,71.867L324.692,34.954L336.872,34.954L336.872,26.003L301.318,26.003L301.318,34.954ZM371.101,71.867L382.297,71.867L382.297,26.003L371.101,26.003L371.101,43.97L353.685,43.97L353.685,26.003L342.489,26.003L342.489,71.867L353.685,71.867L353.685,52.986L371.101,52.986L371.101,71.867ZM435.622,48.804C435.622,35.019 425.212,25.35 412.117,25.35C399.088,25.35 388.481,35.019 388.481,48.804C388.481,62.59 399.088,72.324 412.117,72.324C425.147,72.324 435.622,62.59 435.622,48.804ZM399.939,48.804C399.939,40.638 404.653,35.476 412.117,35.476C419.451,35.476 424.23,40.638 424.23,48.804C424.23,56.84 419.451,62.132 412.117,62.132C404.653,62.132 399.939,56.84 399.939,48.804ZM441.653,53.378C441.653,66.052 449.968,72.324 460.64,72.324C471.247,72.324 480.151,66.052 480.151,53.378L480.151,26.003L468.955,26.003L468.955,53.443C468.955,58.866 466.14,62.002 460.836,62.002C455.533,62.002 452.849,58.866 452.849,53.443L452.849,26.003L441.653,26.003L441.653,53.378ZM509.49,25.48C495.74,25.48 486.116,35.15 486.116,48.87C486.116,62.59 495.806,72.194 509.556,72.194C521.668,72.194 529.328,64.288 531.686,56.383L531.686,45.995L507.33,45.995L507.33,54.227L521.538,54.227C519.834,59.388 515.972,62.328 510.406,62.328C502.354,62.328 497.508,57.363 497.508,48.87C497.508,40.899 502.288,35.803 509.49,35.803C513.68,35.803 516.822,37.436 518.526,40.507L530.9,40.507C528.478,31.099 520.49,25.48 509.49,25.48ZM566.498,71.867L577.694,71.867L577.694,26.003L566.498,26.003L566.498,43.97L549.082,43.97L549.082,26.003L537.886,26.003L537.886,71.867L549.082,71.867L549.082,52.986L566.498,52.986L566.498,71.867ZM583.288,34.954L595.466,34.954L595.466,71.867L606.662,71.867L606.662,34.954L618.84,34.954L618.84,26.003L583.288,26.003L583.288,34.954Z" fill="#0029FF"/>
</svg>
