<svg width="38" height="36" viewBox="0 0 38 36" fill="none" xmlns="http://www.w3.org/2000/svg" xmlns:xlink="http://www.w3.org/1999/xlink">
<path d="M24.809,13.734C24.472,8.712 22.357,3.816 18.39,0C14.386,3.852 12.178,8.748 11.747,13.734C14.142,14.958 16.351,16.542 18.278,18.468C20.205,16.56 22.414,14.976 24.809,13.734ZM12.646,18.504C12.384,18.324 12.085,18.162 11.804,17.982C12.085,18.18 12.384,18.324 12.646,18.504ZM24.659,18.054C24.416,18.216 24.153,18.342 23.91,18.522C24.153,18.342 24.416,18.216 24.659,18.054ZM18.278,24.21C14.255,18.306 7.388,14.4 -0.434,14.4C-0.434,23.976 5.853,32.076 14.591,35.082C15.77,35.496 17.006,35.802 18.278,36C19.55,35.784 20.767,35.478 21.965,35.082C30.703,32.076 36.99,23.976 36.99,14.4C29.168,14.4 22.301,18.306 18.278,24.21Z" fill="#323232"/>
</svg>
