<svg width="42" height="40" viewBox="0 0 42 40" fill="none" xmlns="http://www.w3.org/2000/svg" xmlns:xlink="http://www.w3.org/1999/xlink">
<path d="M36.9,0L4.233,0C1.643,0 -0.434,1.714 -0.434,3.81L-0.434,30.476C-0.434,32.571 1.643,34.286 4.233,34.286L13.566,34.286L20.566,40L27.566,34.286L36.9,34.286C39.466,34.286 41.566,32.571 41.566,30.476L41.566,3.81C41.566,1.714 39.466,0 36.9,0ZM22.9,30.476L18.233,30.476L18.233,26.667L22.9,26.667L22.9,30.476ZM27.73,15.714L25.63,17.467C23.95,18.857 22.9,20 22.9,22.857L18.233,22.857L18.233,21.905C18.233,19.81 19.283,17.905 20.963,16.514L23.856,14.114C24.72,13.429 25.233,12.476 25.233,11.429C25.233,9.333 23.133,7.619 20.566,7.619C18,7.619 15.9,9.333 15.9,11.429L11.233,11.429C11.233,7.219 15.41,3.81 20.566,3.81C25.723,3.81 29.9,7.219 29.9,11.429C29.9,13.105 29.06,14.629 27.73,15.714Z" fill="#323232"/>
</svg>
